<?xml version="1.0" encoding="UTF-8"?>
<svg width="64" height="64" viewBox="0 0 64 64" fill="none" xmlns="http://www.w3.org/2000/svg">
    <!-- Hills -->
    <path d="M0 48C16 32 32 40 48 32C64 24 64 48 64 48H0Z" fill="#2E7D32"/>
    <!-- Trees -->
    <path d="M16 32L16 48" stroke="#2E7D32" stroke-width="2"/>
    <path d="M16 32C16 24 24 24 24 32" stroke="#2E7D32" stroke-width="2"/>
    <path d="M48 32L48 48" stroke="#2E7D32" stroke-width="2"/>
    <path d="M48 32C48 24 56 24 56 32" stroke="#2E7D32" stroke-width="2"/>
    <!-- Sun -->
    <circle cx="32" cy="16" r="8" fill="#FFD700"/>
    <path d="M32 4L32 8" stroke="#FFD700" stroke-width="2"/>
    <path d="M32 24L32 28" stroke="#FFD700" stroke-width="2"/>
    <path d="M20 16L24 16" stroke="#FFD700" stroke-width="2"/>
    <path d="M40 16L44 16" stroke="#FFD700" stroke-width="2"/>
</svg> 