<?xml version="1.0" encoding="UTF-8"?>
<svg width="64" height="64" viewBox="0 0 64 64" fill="none" xmlns="http://www.w3.org/2000/svg">
    <path d="M32 8C18.745 8 8 18.745 8 32C8 45.255 18.745 56 32 56C45.255 56 56 45.255 56 32C56 18.745 45.255 8 32 8ZM32 52C20.954 52 12 43.046 12 32C12 20.954 20.954 12 32 12C43.046 12 52 20.954 52 32C52 43.046 43.046 52 32 52Z" fill="#2E7D32"/>
    <path d="M32 16C23.163 16 16 23.163 16 32C16 40.837 23.163 48 32 48C40.837 48 48 40.837 48 32C48 23.163 40.837 16 32 16ZM32 44C25.373 44 20 38.627 20 32C20 25.373 25.373 20 32 20C38.627 20 44 25.373 44 32C44 38.627 38.627 44 32 44Z" fill="#66BB6A"/>
    <path d="M32 24C28.686 24 26 26.686 26 30C26 33.314 28.686 36 32 36C35.314 36 38 33.314 38 30C38 26.686 35.314 24 32 24ZM32 34C29.791 34 28 32.209 28 30C28 27.791 29.791 26 32 26C34.209 26 36 27.791 36 30C36 32.209 34.209 34 32 34Z" fill="#2E7D32"/>
</svg> 